<svg width="16971" height="13364" viewBox="0 0 16971 13364" fill="none" xmlns="http://www.w3.org/2000/svg">
<path d="M8364.33 1.91139C8364.33 1.91139 8151.57 46.2306 8137.78 68.9837C8123.99 91.7368 8123.74 96.456 8137.78 99.0574C8151.83 101.659 11293.3 621.266 11355.7 628.315C11418 635.364 11443.5 628.315 11443.5 628.315C11443.5 628.315 11456.6 628.711 11461.9 614.465C11467.3 600.22 11452.4 580.831 11443.5 575.291C11434.6 569.75 11406.5 558.473 11381 552.142C11355.5 545.811 8454.94 3.96203 8429.02 1.91139C8403.1 -0.139241 8364.33 1.91139 8364.33 1.91139Z" fill="black" stroke="black"/>
<path d="M4758.45 3927.33C4759.24 3905.57 4761.82 3846.21 4764.19 3805.85C4766.56 3765.49 4792.68 3767.66 4817.61 3780.92C4842.54 3794.17 4911.39 3830.98 4911.39 3830.98L5316 4025.86L5631.38 4176.82L5919.06 4291.18L6262.73 4437.2L6502.53 4527.02C6502.53 4527.02 12050.3 6575.4 12066.4 6582.72C12082.4 6590.04 12102.4 6606.07 12123.1 6622.91C12147.7 6642.84 12152 6668.59 12123.1 6689.96C12094.3 6711.33 11953 6803.52 11953 6803.52C11953 6803.52 11913.6 6823.31 11894.2 6819.55C11874.8 6815.79 11835.3 6803.52 11835.3 6803.52L7070.57 5045L6131.75 4694.8L5958.04 4635.84L5824.09 4574.11L5181.07 4207.69C5181.07 4207.69 4801.98 3991.46 4788.13 3983.34C4774.28 3975.21 4757.66 3949.09 4758.45 3927.33Z" fill="black" stroke="black"/>
<path d="M4744.8 4180.58C4744.01 4192.84 4736.09 4328.97 4737.28 4349.35C4738.47 4369.72 4772.89 4395.25 4772.89 4395.25L5247.94 4757.91L5635.73 5067.16L5702.41 5116.03L5777.79 5157.38L5866.63 5188.64L11267.2 7163.02C11267.2 7163.02 11350.1 7191.9 11365 7186.56C11379.8 7181.22 11407.9 7163.02 11407.9 7163.02L11582.6 7050.44C11582.6 7050.44 11615.5 7024.52 11619.6 7017.79C11623.8 7011.07 11623.8 7000.78 11619.6 6991.28C11615.5 6981.78 11582.6 6969.12 11582.6 6969.12L11407.9 6911.35L9895.32 6359.34L9024.96 6038.02L6731.05 5194.57L5866.63 4873.26L5702.41 4791.94L4821.76 4171.67C4821.76 4171.67 4791.66 4156.06 4772.89 4161.38C4760.11 4165.01 4745.59 4168.31 4744.8 4180.58Z" fill="black" stroke="black"/>
<path d="M4731.55 4583.19C4730.96 4591.5 4719.08 4714.96 4724.03 4734.15C4728.98 4753.35 4765.58 4790.34 4765.58 4790.34L5489.33 5511.12L5575 5598.58L5643.26 5654.77L5702.42 5681.48L10318.5 7336.12C10318.5 7336.12 10753.6 7500.94 10790.8 7515.18C10828 7529.43 10884.2 7519.34 10903.2 7507.66C10922.2 7495.99 11073.3 7392.31 11073.3 7392.31C11073.3 7392.31 11090.6 7376.88 11095.7 7367.19C11100.8 7357.49 11095.7 7341.07 11088.2 7336.12C11080.7 7331.18 11037.9 7312.38 11037.9 7312.38L6386.2 5632.61L5919.86 5457.9L5748.32 5400.13C5748.32 5400.13 5662.05 5354.82 5643.26 5340.97C5624.46 5327.12 4772.11 4562.81 4765.58 4558.06C4759.05 4553.32 4753.14 4555.07 4746.19 4558.06C4735.76 4562.56 4732.14 4574.88 4731.55 4583.19Z" fill="black" stroke="black"/>
<path d="M4714.52 4981.48C4712.94 4993.55 4706.45 5147.48 4707.6 5160.94C4708.74 5174.39 4766.56 5233.35 4766.56 5233.35L5428.58 6040.2L5488.13 6114.59L5577.36 6179.29L5671.74 6224.79C5671.74 6224.79 10240 7854.71 10266.1 7864.41C10292.2 7874.1 10356.7 7873.7 10382 7859.46C10407.4 7845.21 10552.2 7741.74 10559.7 7735.41C10567.2 7729.07 10571.3 7722.8 10572.8 7712.65C10574.2 7702.32 10571.2 7695.89 10566.2 7686.73C10559.8 7674.98 10546.1 7666.55 10540.9 7663.58C10535.8 7660.62 10484.1 7640.63 10484.1 7640.63L5837.54 5976.29L5647.01 5914.76L5553.82 5850.85L4976.28 5218.51L4824.14 5047.96C4824.14 5047.96 4768.34 4964.07 4763.79 4958.93C4759.24 4953.78 4744.82 4954.22 4734.31 4958.93C4723.62 4963.72 4716.11 4969.42 4714.52 4981.48Z" fill="black" stroke="black"/>
<path d="M5447.57 1203.08C5433.33 1241.06 5375.75 1424.48 5373.18 1448.02C5370.61 1471.56 5364.41 1486.33 5380.3 1497.98C5387.37 1503.16 5391.78 1505.6 5401.67 1504.8C5411.56 1504.01 5447.57 1477.5 5447.57 1477.5C5447.57 1477.5 5565.3 1390.84 5597.74 1383.72C5630.19 1376.59 5717.05 1383.72 5717.05 1383.72L10691.5 2602.69L10863.8 2662.25L10979.7 2723.58L11037.5 2771.46C11037.5 2771.46 12638 4479.13 12662.3 4489.82C12686.6 4500.5 12689.8 4497.53 12693 4489.82C12696.1 4482.1 12699.3 4378.03 12693 4349.94C12686.6 4321.84 12676.1 4283.06 12662.3 4261.3C12648.4 4239.53 11018.9 2444.01 11018.9 2444.01C11018.9 2444.01 10996 2414.53 10979.7 2404.84C10963.5 2395.14 10901.2 2375.95 10901.2 2375.95C10901.2 2375.95 5750.88 1157.97 5717.05 1153.61C5683.22 1149.26 5543.53 1150.45 5520.98 1153.61C5498.42 1156.78 5461.82 1165.09 5447.57 1203.08Z" fill="black" stroke="black"/>
<path d="M5281.37 1728.58C5274.87 1746.98 5210.15 1948.8 5202.83 1972.54C5195.51 1996.28 5236.46 2004.79 5262.97 1994.3C5289.49 1983.82 5338.16 1962.45 5338.16 1962.45C5338.16 1962.45 5625.05 1847.69 5687.57 1825.53C5750.09 1803.37 5839.52 1809.31 5904.81 1825.53C5970.1 1841.76 8740.84 2575.79 8740.84 2575.79L9171.96 2689.56L9711.71 2895.13L11068.8 3443.18C11068.8 3443.18 11143.8 3466.73 11267.6 3535.18C11391.5 3603.64 12551.1 4756.73 12551.1 4756.73C12551.1 4756.73 12673.8 4881.97 12694.7 4902.15C12715.7 4922.33 12749.9 4922.33 12749.9 4902.15C12749.9 4881.97 12750.9 4866.44 12749.9 4843.59C12748 4798.12 12733.7 4726.06 12728.1 4701.13C12722.4 4676.2 12689.8 4641.98 12689.8 4641.98L11247.6 3199.23L11159 3128.99C11159 3128.99 11102.8 3083.48 11035.3 3050.44C10967.9 3017.4 10505.5 2838.15 10505.5 2838.15L9813.6 2575.79C9813.6 2575.79 5931.72 1581.78 5839.52 1559.82C5747.32 1537.85 5682.62 1542.8 5637.31 1559.82C5592 1576.83 5350.03 1681.69 5350.03 1681.69C5350.03 1681.69 5287.88 1710.18 5281.37 1728.58Z" fill="black" stroke="black"/>
<path d="M5123.88 2220.24C5117.75 2236.26 5076.99 2370.41 5069.08 2393.16C5061.16 2415.92 5070.86 2428.78 5087.08 2428.78H5167.81C5189.37 2428.78 5778.18 2315.6 5778.18 2315.6C5778.18 2315.6 5977.03 2287.71 6077.14 2315.6C6177.26 2343.5 6629.75 2484.18 6629.75 2484.18L7662.34 2781.94L8942.06 3270.64L9616.54 3536.36L10245.3 3796.14L10837.3 4018.73L11359 4225.48C11359 4225.48 11453.4 4257.34 11532.6 4311.75C11611.7 4366.16 12664.9 5256.69 12692 5275.29C12719.1 5293.89 12729 5303.58 12752.1 5303.58H12778C12797.4 5303.58 12808.6 5300.62 12810.1 5280.44C12811.6 5260.25 12810.1 5282.61 12810.1 5243.24C12810.1 5203.87 12792.7 5128.49 12778 5105.53C12763.4 5082.58 11462.1 3918.02 11412.1 3887.15C11362 3856.29 11143.8 3772.6 11143.8 3772.6L10117.5 3371.55L9321.14 3049.05L8515.09 2724.17C8515.09 2724.17 6109.99 2045.73 6002.16 2026.34C5894.33 2006.95 5749.89 2026.34 5749.89 2026.34L5512.27 2082.93C5512.27 2082.93 5206.19 2174.84 5170.97 2186.16C5135.76 2197.49 5130.02 2204.21 5123.88 2220.24Z" fill="black" stroke="black"/>
<path d="M6916.64 515.134C6868.56 521.861 6682.98 572.314 6696.23 595.265C6709.49 618.216 6734.81 621.579 6734.81 621.579L11066.6 1473.14C11066.6 1473.14 11154.7 1491.14 11176 1502.62C11197.4 1514.1 11209.5 1527.15 11209.5 1527.15C11209.5 1527.15 12453.8 3238.78 12462.1 3247.09C12470.4 3255.4 12495.9 3275.19 12514.9 3247.09C12519.1 3240.96 12514.9 3217.42 12514.9 3217.42C12514.9 3217.42 12500.5 3132.14 12486.6 3101.67C12472.8 3071.2 11300.9 1417.74 11300.9 1417.74L11236.6 1354.63C11236.6 1354.63 11209.5 1324.55 11176 1304.37C11142.6 1284.19 7047.22 515.134 7047.22 515.134C7047.22 515.134 6964.72 508.408 6916.64 515.134Z" fill="black"/>
<path d="M6396.09 701.512C6365.03 706.458 6176.27 762.253 6176.27 779.862C6176.27 797.471 6177.86 806.177 6194.67 817.454C6272.43 837.833 10960.2 1820.17 10960.2 1820.17C10960.2 1820.17 11054.2 1833.63 11097.5 1850.05C11140.8 1866.47 11161.8 1901.49 11161.8 1901.49L12351.7 3432.28C12351.7 3432.28 12495.9 3627.37 12512.9 3637.26C12529.9 3647.15 12560.2 3664.56 12576.6 3650.91C12593.1 3637.26 12576.6 3565.24 12576.6 3565.24C12576.6 3565.24 12562.8 3514.39 12550.9 3492.23C12539 3470.07 11249.6 1762.2 11249.6 1762.2L11209.5 1700.08L11176 1667.83C11176 1667.83 11102.6 1631.42 11066.6 1622.91C11030.6 1614.41 6500.16 703.095 6482.75 701.512C6465.34 699.929 6427.15 696.566 6396.09 701.512Z" fill="black"/>
<path d="M6916.64 515.134C6868.56 521.861 6682.98 572.314 6696.23 595.265C6709.49 618.216 6734.81 621.579 6734.81 621.579L11066.6 1473.14C11066.6 1473.14 11154.7 1491.14 11176 1502.62C11197.4 1514.1 11209.5 1527.15 11209.5 1527.15C11209.5 1527.15 12453.8 3238.78 12462.1 3247.09C12470.4 3255.4 12495.9 3275.19 12514.9 3247.09C12519.1 3240.96 12514.9 3217.42 12514.9 3217.42C12514.9 3217.42 12500.5 3132.14 12486.6 3101.67C12472.8 3071.2 11300.9 1417.74 11300.9 1417.74L11236.6 1354.63C11236.6 1354.63 11209.5 1324.55 11176 1304.37C11142.6 1284.19 7047.22 515.134 7047.22 515.134C7047.22 515.134 6964.72 508.408 6916.64 515.134Z" stroke="black"/>
<path d="M6396.09 701.512C6365.03 706.458 6176.27 762.253 6176.27 779.862C6176.27 797.471 6177.86 806.177 6194.67 817.454C6272.43 837.833 10960.2 1820.17 10960.2 1820.17C10960.2 1820.17 11054.2 1833.63 11097.5 1850.05C11140.8 1866.47 11161.8 1901.49 11161.8 1901.49L12351.7 3432.28C12351.7 3432.28 12495.9 3627.37 12512.9 3637.26C12529.9 3647.15 12560.2 3664.56 12576.6 3650.91C12593.1 3637.26 12576.6 3565.24 12576.6 3565.24C12576.6 3565.24 12562.8 3514.39 12550.9 3492.23C12539 3470.07 11249.6 1762.2 11249.6 1762.2L11209.5 1700.08L11176 1667.83C11176 1667.83 11102.6 1631.42 11066.6 1622.91C11030.6 1614.41 6500.16 703.095 6482.75 701.512C6465.34 699.929 6427.15 696.566 6396.09 701.512Z" stroke="black"/>
<path d="M7865.93 168.508L7684.1 232.81L7705.08 281.68L11202.1 872.47C11202.1 872.47 11283.3 882.758 11309.2 890.475C11335.1 898.191 11349.1 928.067 11349.1 928.067C11349.1 928.067 11972.9 1907.64 11990.6 1927.62C12008.2 1947.6 12032.9 1951.84 12048.7 1937.32C12066 1921.49 12055.5 1893 12048.7 1877.37C12042 1861.74 11418 774.558 11391.7 753.164C11365.4 731.771 11366.6 733.577 11326.8 720.519C11287 707.46 8033.51 168.508 8033.51 168.508H7865.93Z" fill="black"/>
<path d="M7386.53 338.266C7327.18 349.939 7216.38 383.97 7213.21 403.36C7210.05 422.749 7220.93 440.754 7239.72 452.229C7258.52 463.705 11115.7 1128.1 11184.3 1150.45C11253 1172.81 11294.3 1222.87 11294.3 1222.87L11349.1 1285.19L12396.2 2864.46C12396.2 2864.46 12423.9 2897.5 12441.1 2901.85C12458.3 2906.2 12479.9 2895.52 12486 2886.81C12492.1 2878.11 12498.3 2860.7 12486 2839.33C12473.7 2817.96 11362.4 1086.94 11349.1 1070.32C11335.9 1053.7 11331.9 1042.23 11309.2 1027.98C11286.4 1013.74 11243.1 993.754 11211.8 985.444C11180.6 977.134 7658.18 344.597 7576.27 338.266C7494.36 331.935 7445.89 326.593 7386.53 338.266Z" fill="black"/>
<path d="M5878.5 892.64C5847.63 897.586 5655.91 973.364 5642.06 979.695C5628.21 986.026 5627.82 1006.01 5642.06 1010.76C5656.31 1015.51 10885.8 2188.78 10900.2 2196.3C10914.7 2203.81 11026.2 2239.03 11047.8 2254.46C11069.4 2269.9 12383.9 3803.26 12383.9 3803.26C12383.9 3803.26 12551.9 3985.68 12558.6 4000.12C12565.3 4014.57 12595.6 4055.92 12601.2 4064.82C12637.6 4123.41 12672.8 4090.15 12662.3 4034.75C12651.8 3979.35 12641.3 3969.65 12637 3957.59C12632.6 3945.52 12601.2 3888.34 12601.2 3888.34L11148.5 2106.67L11081.4 2041.77C11081.4 2041.77 11032.8 2007.74 11007.6 1999.23C10982.5 1990.73 6034.6 897.587 5984.55 892.64C5934.49 887.693 5909.36 887.693 5878.5 892.64Z" fill="black" stroke="black"/>
<path d="M7701.71 8219.94C7718.92 8236.56 8733.52 8804.99 8823.15 8820.42C8912.77 8835.85 8924.65 8829.32 8957.88 8820.42C8991.12 8811.52 9105.68 8717.73 9115.57 8701.51C9125.46 8685.29 9126.85 8662.14 9115.57 8648.88C9104.3 8635.63 9067.69 8621.58 9067.69 8621.58L7810.73 8180.56C7810.73 8180.56 7732.58 8157.81 7714.77 8162.16C7696.96 8166.52 7689.64 8180.56 7689.64 8180.56C7689.64 8180.56 7684.5 8203.32 7701.71 8219.94Z" fill="black" stroke="black"/>
<path d="M9583.89 8333.12C9569.65 8322.63 9541.36 8309.38 9521.37 8301.86C9501.39 8294.34 8828.09 8067.01 8828.09 8067.01L8102.17 7808.81L6993.2 7431.3L5828.64 7021.55C5828.64 7021.55 5478.64 6909.37 5433.92 6871.18C5389.21 6833 5314.81 6709.14 5314.81 6709.14L4968.57 6182.45C4968.57 6182.45 4740.45 5830.47 4735.89 5824.73C4731.34 5819 4713.54 5801.98 4706.41 5800.6C4699.29 5799.21 4691.58 5800.6 4685.64 5808.71C4679.7 5816.82 4676.93 5961.45 4676.93 5961.45C4676.93 5961.45 4672.58 6015.86 4676.93 6029.71C4681.29 6043.56 4753.11 6198.28 4798.42 6265.75C4843.72 6333.22 5200.26 6748.51 5200.26 6748.51C5200.26 6748.51 5307.3 6881.27 5349.44 6916.29C5391.58 6951.31 5872.76 7225.34 5872.76 7225.34C5872.76 7225.34 6083.67 7359.68 6222.37 7423.39C6361.06 7487.1 6634.3 7591.17 6634.3 7591.17L7471.42 7889.73C7471.42 7889.73 9305.32 8525.23 9325.7 8529.98C9346.07 8534.73 9362.5 8536.31 9381.29 8529.98C9400.09 8523.65 9568.46 8396.83 9583.89 8381.79C9599.33 8366.75 9598.14 8343.61 9583.89 8333.12Z" fill="black" stroke="black"/>
<path d="M4735.11 5394.21C4745.4 5397.97 4774.88 5428.83 4792.88 5452.58C4810.89 5476.32 4881.52 5580.39 4881.52 5580.39L5057.41 5819.4L5445.6 6319.96C5445.6 6319.96 5478.38 6366.84 5507.13 6388.42C5528.92 6404.78 5568.47 6421.66 5568.47 6421.66L8702.46 7518.16C8702.46 7518.16 9955.67 7945.73 9982.97 7954.83C10010.3 7963.93 10066.9 7992.62 10079.1 8007.46C10091.4 8022.29 10079.1 8049.8 10079.1 8049.8C10079.1 8049.8 10055.8 8078.49 10045.9 8086.2C10036 8093.92 9929.15 8173.26 9904.62 8181.96C9880.09 8190.67 9827.82 8199.71 9784.33 8181.96C9777.09 8179.01 9766.32 8173.26 9766.32 8173.26L8803.96 7830.18L7621.79 7420.62L6635.89 7074.18L5623.67 6726.16L5477.06 6666.21C5477.06 6666.21 5428.19 6636.93 5408.8 6614.57C5389.41 6592.21 5208.97 6319.96 5208.97 6319.96L4828.1 5797.24L4739.07 5682.09C4739.07 5682.09 4717.3 5641.92 4708.79 5624.11C4700.29 5606.31 4695.93 5572.47 4694.35 5547.35C4692.77 5522.22 4697.32 5429.23 4699.5 5419.34C4701.67 5409.44 4705.96 5398.22 4717.3 5394.21C4723.86 5391.89 4724.82 5390.45 4735.11 5394.21Z" fill="black" stroke="black"/>
<path d="M4938.29 2807.08C4943.64 2785.91 4982.81 2667.2 4990.53 2641.09L4990.71 2640.45C4998.28 2614.84 5000.64 2606.83 5027.92 2604C5055.42 2601.14 5994.07 2532.55 6032.03 2535.23C6073.97 2538.2 6153.51 2553.63 6153.51 2553.63L6637.26 2693.32L7677.18 3068.25L10569.8 4208.08L11261.1 4472.22C11261.1 4472.22 11487.6 4550.57 11559.1 4585.98C11630.5 4621.4 11906.3 4843.98 11906.3 4843.98L12414.8 5225.05L12766.6 5484.63C12766.6 5484.63 12842.9 5546.36 12846.5 5569.12C12850.1 5591.87 12869.8 5742.24 12870.2 5754.11C12870.6 5765.98 12865.3 5782.6 12846.5 5771.92C12827.7 5761.23 12789.5 5733.33 12789.5 5733.33L12611.4 5609.08L12121.4 5274.12L11798.7 5059.05L11543.8 4925.5L6283.89 2882.27C6283.89 2882.27 6255.8 2870.59 6193.28 2862.28C6130.76 2853.97 4973.12 2835.57 4960.26 2834.78C4947.39 2833.99 4932.95 2828.25 4938.29 2807.08Z" fill="black" stroke="black"/>
<path d="M4824.92 3151.15C4836.4 3119.89 4850.25 3077.55 4862.52 3043.91C4874.78 3010.28 4893.38 3015.43 4911.58 3016.24C4929.79 3017.06 5855.15 3086.45 5946.55 3100.5C6037.96 3114.55 6132.34 3137.1 6132.34 3137.1L11695.4 5281.44L11819.8 5341.19L12365.1 5662.7L12689.4 5859.37C12689.4 5859.37 12726 5881.52 12719.1 5904.08C12712.1 5926.64 12695.9 5946.22 12695.9 5946.22C12695.9 5946.22 12646.9 6015.28 12634.2 6027.74C12621.5 6040.2 12575 6019.83 12575 6019.83L12149.5 5792.29L11717.3 5593.06L6455.83 3590.78L6132.34 3475.43C6132.34 3475.43 6047.46 3443.38 5946.55 3416.47C5845.65 3389.56 4871.42 3221.59 4841.54 3216.05C4811.67 3210.51 4813.45 3182.41 4824.92 3151.15Z" fill="black" stroke="black"/>
<path d="M4775.46 3434.58L4775.46 3419.03C4775.46 3368.38 4814.04 3372.34 4845.5 3380.65C4876.96 3388.96 5818.74 3657.25 5818.74 3657.25L6186.35 3779.92L6496.19 3905.75L11190.7 5686.24L11738.7 5893.78L12017.9 6013.09C12017.9 6013.09 12446 6209.76 12460.3 6217.27C12474.5 6224.79 12479.5 6257.24 12460.3 6281.97C12441.1 6306.7 12396.6 6360.32 12378.8 6380.7C12361 6401.08 12342.6 6407.41 12324.2 6401.08C12305.7 6394.75 11912.2 6258.23 11912.2 6258.23L11588.9 6132.2L6418.44 4196.2L5966.93 4021.89L5094.99 3705.53L4796.63 3584.04C4796.63 3584.04 4775.46 3573.56 4775.46 3552.39C4775.46 3533.35 4775.46 3481.64 4775.46 3434.58Z" fill="black" stroke="black"/>
<path d="M1.48738 9369V9455.27L85.8036 9540.74V11988.9L1 12074.9V12160.5H731.415V12075.2L644.012 11988.9V10571.3L1310.91 11688.4L1976.66 10528.8V12160.7L2082.26 12282.9L2191.92 12444C2191.92 12444 2280.62 12596.8 2310.84 12768.5C2341.06 12940.2 2319.78 13065.7 2296.22 13147.9C2272.66 13230.1 2269.41 13224.4 2259.18 13241C2248.94 13257.6 2246.18 13258.2 2239.85 13268.3C2233.51 13278.3 2233.51 13288.1 2233.51 13288.1C2233.51 13288.1 2233.35 13340.3 2233.51 13349.5C2233.67 13358.8 2233.51 13363 2243.1 13363C2252.68 13363 2267.46 13363 2271.04 13363C2274.61 13363 2276.56 13362.3 2280.18 13358.8C2283.8 13355.2 2403.28 13226.8 2403.28 13226.8C2403.28 13226.8 2465.35 13160.5 2494.74 13109.7C2520.9 13064.5 2536.33 12999.9 2536.33 12974.8C2536.33 12949.8 2534.38 9540.25 2534.38 9540.25L2620 9455.6V9369H1976.66L1310.91 10528.1L643.2 9369H1.48738Z" fill="#FF0000" stroke="black"/>
<path fill-rule="evenodd" clip-rule="evenodd" d="M2870 10209.4C2870 10674.8 2870.03 11065.1 2870.03 11417.1C2870.03 11769.2 3347.53 12160.3 3770.7 12160C4193.42 12159.7 4670 11783.9 4670 11417.1C4670 11050.4 4670 10644.2 4670 10209.4C4670 9774.53 4226.35 9367.97 3772.09 9367C3316.57 9366.03 2870 9743.95 2870 10209.4ZM3468.26 10209.4C3468.26 10085 3618.87 9963.85 3770 9968.04C3915.42 9972.08 4069.65 10082.9 4069.65 10209.4V11318.1C4069.65 11440.7 3917.48 11596.9 3770.7 11597.7C3622.83 11598.4 3470.35 11448.4 3468.26 11318.1C3466.17 11187.9 3468.26 10333.8 3468.26 10209.4Z" fill="#FF0000"/>
<path d="M4069.65 11318.1C4069.65 11440.7 3917.48 11596.9 3770.7 11597.7C3622.83 11598.4 3470.35 11448.4 3468.26 11318.1C3466.17 11187.9 3468.26 10333.8 3468.26 10209.4C3468.26 10085 3618.87 9963.85 3770 9968.04C3915.42 9972.08 4069.65 10082.9 4069.65 10209.4M4069.65 11318.1C4069.65 11195.5 4069.65 10335.9 4069.65 10209.4M4069.65 11318.1V10209.4M2870 10209.4C2870 10674.8 2870.03 11065.1 2870.03 11417.1C2870.03 11769.2 3347.53 12160.3 3770.7 12160C4193.42 12159.7 4670 11783.9 4670 11417.1C4670 11050.4 4670 10644.2 4670 10209.4C4670 9774.53 4226.35 9367.97 3772.09 9367C3316.57 9366.03 2870 9743.95 2870 10209.4Z" stroke="black"/>
<path d="M8255.95 12160.2V12075.1L8169.84 11989.4V9968.86H8641.57L8728 10054.6H8770V9367H6970V10054.6H7012.97L7098.43 9968.86H7570V11989.4L7484.22 12075.1V12161L8255.95 12160.2Z" fill="#FF0000" stroke="black"/>
<path d="M14405.9 12159.2V12074.2L14319.8 11988.5V9968.64H14791.6L14878 10054.3H14920V9367H13120V10054.3H13163L13248.4 9968.64H13720V11988.5L13634.2 12074.2V12160L14405.9 12159.2Z" fill="#FF0000" stroke="black"/>
<path d="M11070.1 9367H11657V9581.14L11970.4 10183.1L12282.4 9581.14V9367H12870V9452.85L12205.3 10785V11988.9L12282.7 12074.8V12160H11618.4V12074.5L11695.9 11988.6V10785L11070 9452.85L11070.1 9367Z" fill="#FF0000" stroke="black"/>
<path d="M15170.2 9367H16970V10054.6H16909.9L16816.1 9967.65H15893.5V10527.2H16812.1V11042.5H15895V11559.9H16812.4L16910.6 11475.6H16968.4V12161H15170V12073L15265.6 11989.1V9538.87L15170.5 9452.2L15170.2 9367Z" fill="#FF0000" stroke="black"/>
<path fill-rule="evenodd" clip-rule="evenodd" d="M9020.87 9367.49V9452.35L9112.85 9538.19V11988.5L9020 12074.3V12160.8H9854.81C9854.81 12160.8 10729.1 12192.2 10819.8 11390.1V11354C10791.7 10913.9 10543.4 10763 10543.4 10763C10543.4 10763 10820 10571 10820 10140.7C10820 9710.35 10310.5 9367 9854.81 9367C9399.09 9367 9020.87 9367.49 9020.87 9367.49ZM9954.65 9966.57H9714.48V10484.2H9954.65C9954.65 10484.2 10254.8 10460.5 10222 10206.9C10189.2 9953.24 9954.65 9966.57 9954.65 9966.57ZM9714.48 11560.4V11042.8H9934.75C9934.75 11042.8 10245.8 11068.7 10222 11322.1C10198.3 11575.6 9934.75 11560.4 9934.75 11560.4H9714.48Z" fill="#FF0000" stroke="black"/>
<path d="M6104.18 10354.8V10204.7C6104.18 10204.7 6084.3 9972.03 5821.07 9972.03C5557.84 9972.03 5535.82 10204.7 5535.82 10204.7C5535.82 10590.5 6718.57 10519.8 6720 11322.7V11385.1C6720 11385.1 6678.46 12162 5821.07 12162C4963.69 12162 4920 11389.7 4920 11389.7V11215.7H5536.35V11322.7C5536.35 11322.7 5533.67 11541.4 5818.93 11557.6C6104.18 11573.9 6102.93 11322.7 6102.93 11322.7C6102.93 10931.3 4920.54 11034.9 4920.54 10204.7V10140.3C4920.54 10140.3 4992.52 9368 5821.07 9368C6649.63 9368 6718.57 10140.3 6718.57 10140.3V10354.8H6104.18Z" fill="#FF0000" stroke="black"/>
</svg>
